<?xml version="1.0" encoding="UTF-8" standalone="no"?>
<!-- Created with Inkscape (http://www.inkscape.org/) -->

<svg
   width="48"
   height="48"
   viewBox="0 0 12.7 12.7"
   version="1.1"
   id="svg5"
   inkscape:version="1.2 (dc2aeda, 2022-05-15)"
   sodipodi:docname="10mapz2.svg"
   xmlns:inkscape="http://www.inkscape.org/namespaces/inkscape"
   xmlns:sodipodi="http://sodipodi.sourceforge.net/DTD/sodipodi-0.dtd"
   xmlns="http://www.w3.org/2000/svg"
   xmlns:svg="http://www.w3.org/2000/svg">
  <sodipodi:namedview
     id="namedview7"
     pagecolor="#ffffff"
     bordercolor="#000000"
     borderopacity="0.25"
     inkscape:showpageshadow="2"
     inkscape:pageopacity="0.0"
     inkscape:pagecheckerboard="0"
     inkscape:deskcolor="#d1d1d1"
     inkscape:document-units="mm"
     showgrid="false"
     inkscape:zoom="12.421029"
     inkscape:cx="28.862342"
     inkscape:cy="30.875058"
     inkscape:window-width="1743"
     inkscape:window-height="1097"
     inkscape:window-x="57"
     inkscape:window-y="44"
     inkscape:window-maximized="1"
     inkscape:current-layer="layer1" />
  <defs
     id="defs2" />
  <g
     inkscape:label="Layer 1"
     inkscape:groupmode="layer"
     id="layer1">
    <path
       id="path298"
       style="fill:#ffcc00;stroke-width:0.841733;stroke-linecap:square"
       d="M 6.2791103,6.5374624 0.39162454,4.8428935 c -0.13588706,0.4875841 4.20977326,1.982005 4.45990226,2.4229278 0.00439,0.00774 0.00865,0.017078 0.012354,0.027233 z" />
    <path
       id="path2033"
       style="fill:#504416;stroke-width:0.841733;stroke-linecap:square"
       d="M 6.2791103,6.5374624 4.863883,7.2930541 c 0.2109724,0.577203 -0.6595856,4.9738779 -0.1753579,5.1214359 0.00325,9.89e-4 0.00668,9e-4 0.01001,0.0016 l 1.622376,-5.8665962 z" />
    <path
       id="path1970"
       style="fill:#504416;stroke-width:0.841733;stroke-linecap:square"
       d="M 6.3292406,6.5205547 5.5344064,5.0069868 C 5.0542007,5.2504369 0.54170505,4.3502791 0.39217982,4.8409642 c -1.9567e-4,6.418e-4 -3.7541e-4,0.00128 -5.5528e-4,0.00193 L 6.3209111,6.5494941 Z" />
    <path
       id="path2000"
       style="fill:#ffcc00;stroke-width:0.841733;stroke-linecap:square"
       d="M 7.965704,0.54461892 C 7.4801471,0.39665642 5.9823533,4.7535058 5.5408467,5.003966 c -0.00188,0.00106 -0.00443,0.00199 -0.00644,0.00302 L 6.3292406,6.5205547 7.9791115,0.55126352 c -0.00447,-0.00224 -0.00869,-0.00521 -0.013407,-0.00664 z" />
    <path
       id="path1941"
       style="fill:#ffcc00;stroke-width:0.841733;stroke-linecap:square"
       d="M 6.3286283,6.551715 6.3209083,6.549485 4.6985387,12.41597 C 5.1819686,12.50132 6.6019682,8.4140817 7.0786767,7.9813631 Z" />
    <path
       id="path2003"
       style="fill:#504416;stroke-width:0.841733;stroke-linecap:square"
       d="m 6.3286283,6.551715 0.7500484,1.4296481 c 0.012069,-0.010956 0.023877,-0.020079 0.034705,-0.026222 0.4076872,-0.231275 4.2117533,0.50095 5.0069113,0.2635632 z" />
    <path
       id="path1973"
       style="fill:#ffcc00;stroke-width:0.841733;stroke-linecap:square"
       d="M 7.8173675,5.7149161 6.3321144,6.508151 6.3209124,6.549493 12.120295,8.2187036 c 0.07871,-0.023499 0.128229,-0.056177 0.141756,-0.1005614 C 12.407701,7.640173 8.1881641,6.1815202 7.8173675,5.7149161 Z" />
    <path
       id="path2030"
       style="fill:#504416;stroke-width:0.841733;stroke-linecap:square"
       d="M 7.9791115,0.55126352 6.3321144,6.508151 7.8173675,5.7149161 c -0.00589,-0.00741 -0.010748,-0.014732 -0.014666,-0.02163 -0.2517352,-0.4437557 0.6380753,-4.91064568 0.17641,-5.14202258 z" />
  </g>
</svg>
